<?xml version="1.0" encoding="UTF-8"?>
<svg id="_レイヤー_1" data-name="レイヤー 1" xmlns="http://www.w3.org/2000/svg" viewBox="0 0 548 216.3">
  <defs>
    <style>
      .cls-1 {
        fill: #231815;
      }

      .cls-2 {
        fill: none;
        stroke: #231815;
        stroke-width: .75px;
      }
    </style>
  </defs>
  <g>
    <path class="cls-1" d="M105.26,205.58c0,3.58-.15,3.84-1.89,4.77-9.46,4.5-23.72,5.96-35.07,5.96-35.65,0-67.24-15.36-67.24-51.91,0-21.19,12.08-36.02,25.32-43.3,13.97-7.68,26.92-8.61,39.15-8.61,10.04,0,22.85,1.59,25.76,2.12,3.06,.53,8.15,1.32,11.5,1.46,1.75,.13,2.04,.66,2.04,1.59,0,1.46-1.02,5.16-1.02,21.72,0,2.12-.44,2.78-1.6,2.78-1.02,0-1.31-.66-1.46-1.72-.44-3.05-1.16-7.28-4.95-10.99-4.37-4.24-16.01-10.33-32.45-10.33-8,0-18.63,.53-28.82,8.21-8.15,6.22-13.39,16.16-13.39,32.45,0,28.47,19.94,49.79,50.64,49.79,3.79,0,8.88,0,12.38-1.46,2.18-.93,2.76-2.65,2.76-4.9v-12.45c0-6.62,0-11.65-.14-15.63-.15-4.5-1.46-6.62-6.26-7.55-1.17-.26-3.64-.4-5.68-.4-1.31,0-2.18-.26-2.18-1.06,0-1.06,1.02-1.32,3.06-1.32,7.57,0,16.74,.4,21.1,.4s12.22-.4,17.03-.4c1.89,0,2.91,.27,2.91,1.32,0,.79-.87,1.06-1.89,1.06-1.16,0-2.18,.13-3.93,.4-3.93,.66-5.39,2.91-5.53,7.55-.15,3.97-.15,9.27-.15,15.89v14.57Z"/>
    <path class="cls-1" d="M132.01,152.74c0-20.13,0-23.84-.29-28.08-.29-4.5-1.46-6.62-6.26-7.55-1.16-.26-3.64-.4-5.68-.4-1.6,0-2.48-.26-2.48-1.19s1.02-1.19,3.2-1.19c7.72,0,16.88,.4,19.94,.4,4.95,0,16.01-.4,20.52-.4,9.17,0,18.92,.79,26.78,5.69,4.07,2.52,9.89,9.27,9.89,18.14,0,9.8-4.51,18.81-19.21,29.66,12.95,14.83,22.99,26.62,31.58,34.83,8.15,7.68,14.12,8.61,16.3,9.01,1.6,.26,2.91,.4,4.07,.4s1.75,.4,1.75,1.06c0,1.06-1.02,1.32-2.76,1.32h-13.83c-8.15,0-11.79-.66-15.57-2.52-6.26-3.05-11.79-9.27-19.94-19.47-5.82-7.28-12.52-16.29-14.41-18.28-.73-.79-1.6-.93-2.62-.93l-12.66-.26c-.73,0-1.17,.26-1.17,1.06v1.85c0,12.32,0,22.78,.73,28.34,.44,3.84,1.31,6.75,5.67,7.28,2.18,.27,5.39,.53,7.13,.53,1.16,0,1.75,.4,1.75,1.06,0,.93-1.02,1.32-2.91,1.32-8.44,0-19.21-.4-21.39-.4-2.77,0-11.93,.4-17.76,.4-1.89,0-2.91-.4-2.91-1.32,0-.66,.58-1.06,2.33-1.06,2.18,0,3.93-.26,5.24-.53,2.91-.53,3.64-3.44,4.22-7.28,.73-5.56,.73-16.02,.73-28.21v-23.31Zm17.17,10.46c0,1.46,.29,1.99,1.31,2.38,3.06,.93,7.42,1.32,11.06,1.32,5.82,0,7.71-.53,10.33-2.25,4.37-2.91,8.59-9.01,8.59-19.86,0-18.81-13.68-24.23-22.27-24.23-3.64,0-6.26,.13-7.71,.53-1.02,.26-1.31,.79-1.31,1.85v40.26Z"/>
    <path class="cls-1" d="M216.54,164.39c0-22.65,16.45-51.91,60.1-51.91,36.24,0,58.8,19.2,58.8,49.53s-23.29,54.3-60.25,54.3c-41.77,0-58.65-28.47-58.65-51.91Zm98.53,2.52c0-29.66-18.78-48.07-42.64-48.07-16.74,0-35.8,8.48-35.8,41.45,0,27.55,16.74,49.4,44.68,49.4,10.19,0,33.76-4.5,33.76-42.78Z"/>
    <path class="cls-1" d="M350.11,152.74c0-20.13,0-23.84-.29-28.08-.29-4.5-1.46-6.62-6.26-7.55-1.16-.26-3.64-.4-5.68-.4-1.6,0-2.48-.26-2.48-1.19s1.02-1.19,3.2-1.19c7.72,0,16.88,.4,21.25,.4,3.49,0,12.66-.4,17.9-.4,2.18,0,3.2,.27,3.2,1.19s-.87,1.19-2.33,1.19c-1.6,0-2.47,.13-4.22,.4-3.93,.66-5.09,2.91-5.38,7.55-.29,4.24-.29,7.95-.29,28.08v18.54c0,19.2,4.22,27.28,11.35,32.58,6.55,4.9,13.24,5.43,18.19,5.43,6.4,0,14.26-1.85,20.08-7.15,8-7.28,8.44-19.2,8.44-32.84v-16.55c0-20.13,0-23.84-.29-28.08-.29-4.5-1.46-6.62-6.26-7.55-1.16-.26-3.64-.4-5.24-.4s-2.47-.26-2.47-1.19,1.02-1.19,3.06-1.19c7.42,0,16.59,.4,16.74,.4,1.75,0,10.91-.4,16.59-.4,2.04,0,3.06,.27,3.06,1.19s-.87,1.19-2.62,1.19c-1.6,0-2.48,.13-4.22,.4-3.93,.66-5.09,2.91-5.39,7.55-.29,4.24-.29,7.95-.29,28.08v14.17c0,14.7-1.6,30.33-13.83,39.86-10.33,8.08-20.81,9.54-30.27,9.54-7.71,0-21.68-.4-32.31-9.14-7.42-6.09-12.95-15.89-12.95-35.09v-19.33Z"/>
  </g>
  <g>
    <path class="cls-1" d="M36.78,21.45c0-5.7,.16-9.92,.51-12.62,3.11-.56,6.4-.85,9.91-.85,6.24,0,11.04,.91,14.3,2.74,3.26,1.82,4.91,4.83,4.91,9,0,2.32-.51,4.36-1.53,6.13-1.02,1.74-2.25,3.13-3.77,4.16-1.53,1-3.65,1.82-6.41,2.47-2.79,.64-6.68,.97-11.79,.97-1.77,0-3.8-.14-6.13-.34v-11.65Zm-6.51,52.57l17.76,.15c5.87,0,10.95-.66,15.22-1.94,5.79-1.8,10.49-4.53,14.14-8.21,3.65-3.7,5.47-7.97,5.47-12.79,0-2.48-.52-4.73-1.54-6.74-1.03-2-2.53-3.71-4.47-5.08-1.98-1.37-4.47-2.42-7.4-3.14-2.91-.71-6.77-1.25-11.54-1.61,3.61-.73,6.51-1.55,8.73-2.43,2.24-.86,4.26-2,6.07-3.44,1.82-1.39,3.25-3.07,4.35-4.96,1.07-1.9,1.63-3.96,1.63-6.18,0-2.73-.92-5.22-2.73-7.45-1.8-2.22-4.34-3.84-7.52-4.87-3.23-.99-7.84-1.5-13.79-1.5l-22.56,.51-12.66-.26c-2.02,0-3.73-.02-5.08-.08v3.17c4.21,.03,6.98,.28,8.35,.74,.57,.22,.99,.51,1.29,.93,.39,.7,.69,2.39,.87,5.11,.18,4.34,.3,8.11,.3,11.39v29.84c0,1.65-.1,4.09-.3,7.32-.21,3.23-.42,5.33-.7,6.3-.14,.62-.38,1.03-.69,1.28-.26,.25-1.67,.87-4.12,1.88v2.22c5.38-.14,9.03-.15,10.93-.15Zm6.51-17.88v-18.73c2.79-.2,4.99-.31,6.77-.31,7.69,0,13.24,.57,16.56,1.69,3.35,1.17,5.89,2.9,7.57,5.29,1.69,2.34,2.55,5.27,2.55,8.72s-.92,6.64-2.69,9.32c-1.81,2.7-4.35,4.71-7.65,6.06-3.31,1.34-7.67,2.03-13.09,2.03-3.38,0-6.61-.29-9.69-.83-.22-7-.33-11.37-.33-13.23Z"/>
    <path class="cls-1" d="M116.83,30.48c3.26-3.47,7.26-5.2,11.95-5.2,3.85,0,7,1.26,9.41,3.75,2.45,2.45,3.65,5.65,3.65,9.57,0,2.54-1.11,4.12-3.33,4.82-2.24,.66-7.57,1-15.95,1h-11.63c.73-5.86,2.69-10.49,5.91-13.94Zm17.7,39.38c-6.75,0-12.41-1.93-16.99-5.83-4.56-3.88-6.87-8.77-6.87-14.65,0-.42,.05-1.14,.05-2.12h42.76v-1.47c0-7.38-2.16-13.11-6.43-17.21-4.32-4.08-10.32-6.13-18.07-6.13-8.59,0-15.74,2.54-21.46,7.57-5.74,5.02-8.58,11.35-8.58,18.93s2.99,14.09,8.95,19.05c5.95,4.99,13.53,7.49,22.73,7.49,7.67,0,15.54-1.88,23.71-5.65v-4.32c-6.7,2.87-13.29,4.32-19.79,4.32Z"/>
    <path class="cls-1" d="M188.2,0V62.17c0,3.82,.61,6.29,1.86,7.46,1.23,1.13,3.8,1.72,7.71,1.72h.73v2.83h-30.91v-2.83h1.01c3.81,0,6.36-.59,7.51-1.72,1.2-1.17,1.77-3.64,1.77-7.46V19.86c0-4.42-.35-7.22-1.08-8.41-.73-1.2-2.73-2.4-6.1-3.62l-3.17-1.09v-.68L188.2,0Z"/>
    <path class="cls-1" d="M231.72,0V62.17c0,3.82,.63,6.29,1.85,7.46,1.21,1.13,3.78,1.72,7.78,1.72h.69v2.83h-30.94v-2.83h1c3.82,0,6.35-.59,7.53-1.72,1.2-1.17,1.77-3.64,1.77-7.46V19.86c0-4.42-.33-7.22-1.06-8.41-.75-1.2-2.78-2.4-6.12-3.62l-3.18-1.09v-.68L231.72,0Z"/>
    <path class="cls-1" d="M273.78,30.48c3.26-3.47,7.24-5.2,11.97-5.2,3.83,0,6.97,1.26,9.37,3.75,2.45,2.45,3.68,5.65,3.68,9.57,0,2.54-1.1,4.12-3.36,4.82-2.21,.66-7.53,1-15.94,1h-11.65c.73-5.86,2.7-10.49,5.92-13.94Zm17.72,39.38c-6.77,0-12.42-1.93-17-5.83-4.59-3.88-6.86-8.77-6.86-14.65,0-.42,.03-1.14,.03-2.12h42.76v-1.47c0-7.38-2.15-13.11-6.46-17.21-4.28-4.08-10.3-6.13-18.05-6.13-8.61,0-15.77,2.54-21.49,7.57-5.71,5.02-8.55,11.35-8.55,18.93s2.96,14.09,8.95,19.05c5.93,4.99,13.5,7.49,22.74,7.49,7.66,0,15.56-1.88,23.66-5.65v-4.32c-6.71,2.87-13.28,4.32-19.74,4.32Z"/>
    <path class="cls-1" d="M387.25,62.43l21.6-46.73c1.41-2.98,2.12-4.87,2.12-5.63,0-1.81-1.77-2.87-5.28-3.19l-.87-.04V3.99h19.45v2.84h-.84c-2.04,0-3.69,.64-5.02,1.91-1.35,1.28-2.84,3.67-4.55,7.2l-28.04,60.23h-3.04l-29.57-60.16c-2.94-6.13-5.69-9.18-8.14-9.18h-.71V3.99h23.62v2.84h-.9c-2.1,0-3.46,.17-4.18,.55-.73,.39-1.08,1.1-1.08,2.14,0,.94,.83,3.1,2.48,6.46l22.95,46.44Z"/>
    <path class="cls-1" d="M453.74,22.62V62.17c0,3.76,.57,6.23,1.8,7.41,1.19,1.17,3.72,1.77,7.62,1.77h.87v2.83h-30.91v-2.83h1.08c3.77,0,6.26-.59,7.46-1.72,1.16-1.17,1.77-3.64,1.77-7.46v-19.69c0-4.53-.33-7.35-.96-8.36-.66-1.07-2.86-2.3-6.52-3.65l-2.87-1.11v-.68l20.68-6.07Z"/>
    <path class="cls-1" d="M494.78,30.48c3.27-3.47,7.25-5.2,11.95-5.2,3.81,0,6.96,1.26,9.4,3.75,2.45,2.45,3.67,5.65,3.67,9.57,0,2.54-1.13,4.12-3.36,4.82-2.24,.66-7.55,1-15.93,1h-11.65c.7-5.86,2.71-10.49,5.93-13.94Zm17.7,39.38c-6.77,0-12.42-1.93-16.99-5.83-4.55-3.88-6.87-8.77-6.87-14.65,0-.42,.04-1.14,.06-2.12h42.75v-1.47c0-7.38-2.14-13.11-6.46-17.21-4.31-4.08-10.32-6.13-18.04-6.13-8.62,0-15.78,2.54-21.48,7.57-5.72,5.02-8.57,11.35-8.57,18.93s2.97,14.09,8.92,19.05c5.96,4.99,13.54,7.49,22.79,7.49,7.6,0,15.51-1.88,23.65-5.65v-4.32c-6.71,2.87-13.28,4.32-19.76,4.32Z"/>
    <path class="cls-1" d="M454.99,9.47c0,4.09-3.32,7.41-7.42,7.41s-7.4-3.32-7.4-7.41,3.32-7.39,7.4-7.39,7.42,3.32,7.42,7.39Z"/>
  </g>
  <line class="cls-2" y1="98.49" x2="548" y2="98.49"/>
  <path class="cls-1" d="M490.46,165.91c12.68,1.8,27.98,.85,34.54-10.92,1.62-2.9,2.51-6.62,2.51-9.9,0-4.36-.48-13.19-9.44-19.78-5.76-4.36-12.3-5.14-15.99-5.14-2.39,0-4.79,.13-6.23,.52-.79,.26-1.28,1.06-1.28,2.51v52.73c0,12.14,0,22.56,.79,28.22,.48,3.7,1.44,6.61,6.23,7.12,2.24,.26,5.77,.53,8.15,.53,1.78,0,2.56,.39,2.56,1.06,0,.92-1.27,1.31-3.04,1.31-10.55,0-20.62-.39-24.77-.39-3.67,0-13.74,.39-20.13,.39-2.08,0-3.21-.39-3.21-1.31,0-.67,.65-1.06,2.55-1.06,2.4,0,4.33-.26,5.77-.53,3.19-.52,3.98-3.42,4.64-7.25,.79-5.53,.79-15.96,.79-28.1v-23.19c0-20.04,0-23.73-.31-27.96-.32-4.49-1.59-6.59-6.88-7.52-1.28-.26-4-.4-6.22-.4-1.77,0-2.73-.26-2.73-1.18s1.12-1.2,3.52-1.2c8.47,0,18.54,.41,23.01,.41,6.54,0,15.81-.41,23.17-.41,19.98,0,27.17,5.54,29.74,7.52,3.5,2.78,7.98,8.71,7.98,15.7,0,10.17-5.27,18.94-14.25,24.84-8.01,5.26-17.63,7.33-27.41,7.56-3.79,.09-7.64,0-11.45-.18-1.97-.09-6.14,.05-7.5-1.6"/>
</svg>