<?xml version="1.0" standalone="no"?>
<!DOCTYPE svg PUBLIC "-//W3C//DTD SVG 20010904//EN"
 "http://www.w3.org/TR/2001/REC-SVG-20010904/DTD/svg10.dtd">
<svg version="1.0" xmlns="http://www.w3.org/2000/svg"
 width="2400.000000pt" height="734.000000pt" viewBox="0 0 2400.000000 734.000000"
 preserveAspectRatio="xMidYMid meet">

<g transform="translate(0.000000,734.000000) scale(0.100000,-0.100000)"
fill="#000000" stroke="none">
<path d="M15110 7321 c-5 -11 -10 -33 -10 -50 l0 -31 -70 0 c-81 0 -126 -18
-140 -56 -6 -14 -10 -67 -10 -117 0 -102 11 -130 59 -148 15 -6 146 -11 317
-11 324 0 342 3 363 63 14 39 14 169 1 203 -16 44 -65 66 -147 66 l-72 0 -3
41 c-2 27 -9 46 -20 53 -29 18 -53 -4 -56 -53 l-3 -41 -70 0 -69 0 0 38 c0 21
-5 43 -12 50 -18 18 -46 14 -58 -7z m-2 -179 l3 -42 -80 0 c-77 0 -81 1 -81
23 0 39 16 51 77 58 32 3 63 5 68 4 6 -1 11 -20 13 -43z m212 3 l0 -45 -70 0
-70 0 0 45 0 45 70 0 70 0 0 -45z m218 23 c6 -6 12 -24 12 -40 l0 -29 -77 3
c-77 3 -78 3 -81 31 -6 49 0 54 69 49 35 -2 70 -9 77 -14z m-428 -163 l0 -45
-58 0 c-70 0 -102 19 -102 61 l0 29 80 0 80 0 0 -45z m210 0 l0 -45 -70 0 -70
0 0 45 0 45 70 0 70 0 0 -45z m230 16 c0 -48 -23 -62 -94 -59 l-61 3 -3 43 -3
42 80 0 81 0 0 -29z"/>
<path d="M7396 7294 c-13 -12 -16 -41 -16 -150 l0 -134 -209 0 c-115 0 -216
-3 -225 -6 -9 -3 -16 -16 -16 -29 0 -45 16 -48 233 -44 l202 4 -3 -25 c-6 -49
-45 -156 -80 -220 -53 -98 -176 -215 -284 -270 -48 -25 -89 -52 -91 -60 -6
-22 2 -39 24 -51 15 -8 33 -3 81 21 182 92 320 242 386 417 15 40 29 73 32 73
3 0 18 -29 34 -65 64 -147 188 -295 324 -386 98 -65 152 -65 152 1 0 22 -8 31
-42 46 -124 55 -246 164 -322 287 -46 74 -100 201 -93 221 3 8 62 10 203 7
217 -4 230 -1 222 51 l-3 23 -219 5 -219 5 2 137 c2 128 1 137 -18 147 -27 15
-37 14 -55 -5z"/>
<path d="M8412 7298 c-8 -8 -12 -55 -12 -160 0 -145 0 -148 -22 -153 -123 -26
-133 -30 -136 -51 -5 -34 19 -46 69 -35 94 22 89 31 89 -134 0 -203 15 -225
154 -225 110 0 166 53 166 157 0 43 -3 53 -20 58 -31 10 -47 -9 -53 -62 -7
-61 -32 -83 -97 -83 -28 0 -52 6 -59 14 -8 9 -11 61 -9 162 l3 148 114 23
c127 25 147 38 118 76 -11 17 -18 16 -111 -3 -54 -11 -104 -20 -112 -20 -11 0
-14 31 -16 148 l-3 147 -25 3 c-14 2 -31 -3 -38 -10z"/>
<path d="M19571 7250 c-57 -65 -145 -132 -229 -174 -47 -24 -53 -30 -50 -54 6
-55 77 -36 203 53 76 54 185 167 185 192 0 23 -19 43 -41 43 -9 0 -39 -27 -68
-60z"/>
<path d="M4855 7288 c-3 -7 -6 -69 -7 -138 l-3 -125 -89 -3 c-49 -2 -95 -1
-102 2 -9 4 -5 23 16 73 37 86 38 111 5 119 -39 10 -52 -1 -70 -58 -28 -84
-98 -216 -163 -307 -49 -68 -59 -88 -51 -103 5 -10 21 -18 34 -18 27 0 78 58
140 160 l36 60 125 0 125 0 -3 -107 -3 -108 -140 -5 c-124 -4 -140 -7 -143
-23 -8 -41 13 -47 155 -47 l134 0 -3 -122 -3 -123 -230 -5 -230 -5 0 -30 0
-30 480 -3 c264 -1 490 0 503 3 18 5 23 11 20 33 l-3 27 -227 3 -228 2 0 125
0 125 138 0 c75 0 143 4 150 9 8 4 12 19 10 32 -3 24 -4 24 -150 27 l-148 3 0
109 0 110 185 0 c176 0 185 1 195 21 24 44 3 49 -196 49 l-184 0 0 128 c0 86
-4 132 -12 140 -16 16 -57 15 -63 0z"/>
<path d="M11645 7284 c-44 -8 -150 -17 -235 -22 -151 -7 -155 -8 -158 -29 -6
-39 32 -45 222 -34 256 16 328 34 300 79 -14 22 -32 23 -129 6z"/>
<path d="M19117 7279 c-72 -23 -203 -46 -319 -55 -74 -5 -88 -9 -94 -26 -9
-29 14 -48 57 -48 110 0 415 56 447 82 16 14 15 33 -4 52 -18 19 -13 19 -87
-5z"/>
<path d="M12303 7279 c-61 -18 -61 -18 -64 -517 -2 -316 0 -455 8 -463 6 -6
21 -9 34 -7 33 4 37 44 38 361 l1 257 108 0 c59 0 124 5 144 10 60 17 68 37
68 178 0 68 -5 132 -10 143 -21 38 -62 49 -182 48 -62 0 -128 -5 -145 -10z
m237 -62 c19 -9 26 -22 28 -50 l3 -37 -125 0 -126 0 0 34 c0 52 22 63 130 65
36 0 76 -5 90 -12z m30 -181 c0 -55 -25 -66 -147 -66 l-103 0 0 50 0 50 125 0
125 0 0 -34z"/>
<path d="M12820 7283 c-8 -3 -25 -15 -37 -26 -22 -19 -23 -28 -23 -152 0 -149
7 -168 68 -185 20 -5 88 -10 150 -10 l112 0 0 -250 c0 -242 -1 -251 -21 -271
-19 -19 -30 -21 -84 -16 -69 5 -85 -3 -85 -40 0 -16 8 -25 28 -30 46 -13 145
-7 179 11 63 32 63 32 63 490 l0 416 -29 32 -29 33 -139 2 c-76 1 -145 0 -153
-4z m240 -66 c19 -9 26 -22 28 -50 l3 -37 -131 0 -131 0 3 37 c4 49 31 63 128
63 41 0 86 -6 100 -13z m30 -197 l0 -50 -108 0 c-127 0 -152 11 -152 66 l0 34
130 0 130 0 0 -50z"/>
<path d="M9981 7266 c-7 -8 -19 -45 -27 -82 -7 -37 -16 -69 -19 -72 -12 -12
-113 -19 -157 -11 -56 10 -74 5 -81 -22 -11 -42 49 -65 148 -57 36 3 55 1 55
-6 0 -18 -77 -153 -146 -259 -35 -54 -64 -107 -64 -118 0 -23 21 -33 53 -25
28 7 126 168 203 330 47 99 51 105 89 116 53 16 113 50 120 68 7 19 -12 42
-36 42 -11 0 -36 -9 -56 -20 -20 -11 -38 -19 -39 -17 -1 1 3 26 9 55 8 38 8
58 1 70 -15 23 -38 26 -53 8z"/>
<path d="M13896 7267 c-10 -8 -20 -33 -25 -68 -4 -30 -10 -60 -14 -66 -13 -20
-101 -26 -142 -9 -49 21 -62 20 -75 -4 -25 -47 30 -80 132 -80 l58 0 -26 -52
c-34 -68 -78 -132 -127 -185 -44 -48 -46 -76 -5 -81 21 -3 38 9 86 57 94 94
179 104 216 26 9 -18 16 -35 16 -38 0 -3 -27 -22 -59 -41 -78 -48 -167 -144
-181 -197 -19 -71 17 -141 93 -182 37 -19 57 -22 172 -22 147 0 188 12 193 56
5 43 -16 51 -89 34 -217 -51 -359 32 -267 156 29 39 135 112 143 99 4 -6 3
-34 0 -64 -6 -42 -4 -56 10 -69 20 -21 29 -21 49 -1 12 12 16 36 16 100 l0 84
48 23 c26 13 92 41 147 62 121 46 144 63 127 100 -6 14 -20 25 -31 25 -10 0
-81 -29 -158 -63 l-140 -64 -19 35 c-31 57 -66 77 -135 77 -32 0 -59 3 -59 8
0 4 15 38 34 75 l34 67 65 19 c77 21 107 40 107 66 0 34 -33 42 -85 20 -26
-11 -50 -20 -54 -20 -4 0 -3 23 3 51 9 46 8 53 -9 65 -23 17 -27 17 -49 1z"/>
<path d="M3475 7260 c-4 -6 -8 -70 -9 -143 -3 -142 -20 -234 -63 -340 -58
-144 -175 -275 -313 -352 -82 -45 -101 -66 -84 -92 33 -51 161 12 289 141 93
93 146 176 192 296 l32 85 12 -35 c61 -173 251 -400 394 -470 68 -34 102 -32
111 6 9 37 0 50 -58 77 -157 72 -305 240 -377 426 -41 105 -53 185 -45 285 8
98 -2 126 -46 126 -16 0 -32 -5 -35 -10z"/>
<path d="M10963 7252 c-51 -11 -71 -34 -78 -94 -9 -73 -1 -639 9 -661 20 -43
138 -63 215 -36 59 21 61 33 61 393 0 181 -4 336 -10 350 -5 14 -18 30 -29 35
-26 14 -126 22 -168 13z m121 -78 c12 -11 16 -36 16 -90 l0 -74 -76 0 -76 0 4
80 c2 58 7 84 18 90 24 16 97 12 114 -6z m14 -311 l3 -83 -76 0 -75 0 0 78 c0
43 3 82 7 86 4 4 37 6 73 4 l65 -3 3 -82z m0 -225 c4 -105 -4 -118 -73 -118
-43 0 -56 4 -65 19 -11 22 -14 164 -3 175 4 4 37 6 73 4 l65 -3 3 -77z"/>
<path d="M8691 7192 c-6 -11 -6 -24 0 -35 8 -14 26 -17 111 -17 l101 0 -7
-119 c-18 -307 -104 -491 -280 -601 -64 -40 -74 -72 -31 -92 23 -10 33 -6 96
37 172 117 260 293 288 574 6 57 11 125 11 152 l0 49 80 0 c116 0 113 7 107
-277 -5 -251 -16 -317 -65 -388 -37 -53 -82 -68 -157 -53 -48 9 -59 9 -72 -4
-40 -41 19 -78 124 -78 65 0 99 13 141 53 85 81 104 161 109 472 4 226 2 253
-14 285 -29 57 -43 60 -300 60 -212 0 -233 -2 -242 -18z"/>
<path d="M16446 7191 c-3 -5 -15 -59 -27 -119 l-21 -110 -36 -6 c-21 -3 -67
-6 -103 -6 -52 0 -70 -4 -83 -19 -15 -16 -15 -23 -6 -41 12 -22 16 -22 107
-16 l95 7 -8 -23 c-34 -109 -118 -272 -189 -366 -48 -64 -54 -82 -31 -102 27
-21 59 -6 98 45 47 61 157 282 194 388 l27 77 61 0 c33 0 66 -4 72 -8 23 -15
34 -53 34 -116 0 -119 -31 -215 -85 -266 -24 -23 -34 -25 -100 -23 -67 2 -74
1 -80 -18 -5 -15 0 -28 14 -43 18 -17 33 -21 89 -21 80 0 121 20 169 83 43 57
63 126 70 244 7 118 -7 178 -49 213 -26 22 -39 25 -105 25 -68 0 -74 2 -68 18
15 37 38 180 32 195 -7 18 -62 24 -71 8z"/>
<path d="M11713 7183 c-7 -2 -13 -9 -13 -15 0 -6 -16 -44 -35 -84 l-36 -74
-130 0 c-119 0 -129 1 -115 16 20 19 20 17 -4 64 -23 45 -60 73 -84 64 -24 -9
-19 -34 18 -89 19 -27 31 -51 28 -52 -4 -1 -26 -7 -49 -13 -51 -13 -73 -47
-73 -113 0 -50 18 -72 50 -64 18 4 20 2 14 -16 -13 -46 -44 -108 -74 -152 -32
-47 -33 -70 -5 -81 24 -9 50 20 92 102 37 72 39 74 76 74 48 0 53 -14 33 -85
l-17 -55 -38 22 c-33 19 -41 20 -55 9 -25 -21 -19 -37 19 -61 19 -12 35 -27
35 -33 0 -25 -90 -125 -144 -161 -37 -24 -56 -44 -56 -57 0 -85 177 40 258
183 34 60 82 194 82 231 0 34 -32 59 -84 64 -44 5 -46 7 -43 35 3 42 -24 59
-52 34 -21 -19 -21 -19 -21 12 0 60 9 62 241 62 126 0 218 -4 230 -10 14 -8
19 -22 19 -53 0 -55 11 -69 46 -65 28 3 29 5 32 61 2 41 -2 66 -12 82 -16 24
-70 45 -117 45 l-26 0 36 70 c29 56 34 73 25 87 -12 19 -31 25 -51 16z"/>
<path d="M20490 7160 c-41 -10 -109 -24 -150 -31 -70 -13 -75 -16 -78 -41 -5
-46 21 -50 144 -22 60 14 119 28 132 31 12 3 22 3 22 0 0 -14 -115 -143 -252
-284 -82 -83 -148 -158 -148 -166 0 -19 27 -47 45 -47 8 0 31 18 51 40 82 89
198 136 313 128 121 -9 175 -59 168 -156 -5 -64 -44 -126 -102 -159 -54 -31
-75 -30 -75 2 0 90 -106 160 -202 135 -59 -16 -88 -50 -88 -101 0 -35 6 -48
38 -79 48 -48 103 -64 207 -58 93 5 153 28 214 83 53 48 79 91 90 149 27 147
-78 250 -254 249 -47 0 -99 -7 -125 -16 -24 -9 -47 -14 -50 -11 -2 3 32 40 76
82 128 121 204 208 204 235 0 57 -50 68 -180 37z m-45 -636 c19 -8 45 -55 45
-84 0 -16 -6 -20 -35 -20 -80 0 -139 54 -105 95 13 15 65 20 95 9z"/>
<path d="M11458 7158 c-4 -12 36 -113 52 -131 13 -15 50 12 50 36 0 39 -43
102 -72 105 -15 2 -28 -2 -30 -10z"/>
<path d="M17567 7138 c-17 -27 -51 -225 -68 -385 -12 -117 -3 -255 23 -335 11
-38 41 -78 58 -78 20 0 37 32 43 79 3 28 24 89 46 135 32 71 37 88 27 102 -20
27 -50 9 -76 -46 -26 -56 -37 -62 -46 -24 -14 57 22 357 62 520 6 23 -18 54
-41 54 -8 0 -21 -10 -28 -22z"/>
<path d="M19156 7095 c-14 -30 -39 -75 -56 -100 -35 -50 -36 -78 -4 -83 26 -4
69 45 113 129 34 63 39 94 15 103 -33 13 -45 4 -68 -49z"/>
<path d="M18924 7119 c-3 -6 3 -32 14 -58 11 -25 23 -54 26 -64 8 -25 35 -32
53 -14 32 32 -15 147 -61 147 -14 0 -28 -5 -32 -11z"/>
<path d="M6040 7096 c-71 -19 -139 -57 -197 -110 -91 -83 -134 -176 -134 -293
0 -71 18 -132 53 -174 20 -24 80 -59 102 -59 33 0 100 47 138 97 89 118 179
333 182 435 0 34 6 58 12 58 26 0 121 -34 156 -56 44 -28 92 -90 109 -141 16
-50 7 -159 -19 -208 -40 -79 -130 -146 -232 -176 -58 -16 -70 -26 -70 -55 0
-71 179 -18 294 87 64 58 111 146 121 226 20 159 -84 313 -244 363 -73 23
-199 26 -271 6z m64 -88 c-30 -179 -108 -356 -190 -427 -42 -37 -57 -38 -89
-7 -77 77 -45 248 69 362 60 60 139 102 193 103 20 1 22 -3 17 -31z"/>
<path d="M18758 7089 c-22 -12 -23 -42 -2 -60 8 -7 24 -30 35 -51 22 -43 52
-50 70 -17 9 17 6 29 -18 66 -35 56 -61 76 -85 62z"/>
<path d="M17922 7048 c-54 -10 -78 -32 -66 -62 8 -22 27 -26 75 -14 24 5 101
8 171 5 131 -5 148 -1 148 36 0 32 -58 47 -172 46 -57 -1 -127 -6 -156 -11z"/>
<path d="M10216 7018 c-10 -8 -17 -23 -14 -34 3 -16 15 -20 70 -26 38 -3 92
-18 127 -33 50 -23 64 -25 76 -15 22 18 18 56 -7 72 -61 39 -218 62 -252 36z"/>
<path d="M19605 6980 c-49 -71 -170 -175 -250 -216 -58 -30 -75 -44 -75 -60 0
-39 25 -49 74 -30 93 36 298 206 336 279 17 35 5 61 -32 65 -19 2 -31 -6 -53
-38z"/>
<path d="M16818 6999 c-30 -17 -21 -36 35 -78 64 -47 99 -86 139 -158 34 -61
41 -67 68 -58 29 9 35 47 14 91 -23 48 -113 145 -171 183 -50 34 -59 36 -85
20z"/>
<path d="M18957 6944 c-4 -4 -7 -34 -7 -66 l0 -58 -120 0 c-104 0 -121 -2
-129 -18 -6 -11 -6 -24 1 -36 9 -15 23 -17 111 -16 56 1 106 1 110 1 26 -3
-130 -184 -215 -248 -50 -39 -64 -77 -32 -90 36 -14 108 45 206 168 l63 81 5
-184 5 -183 30 0 30 0 3 163 3 164 47 -28 c26 -15 64 -42 85 -61 41 -36 58
-41 77 -18 21 25 3 59 -50 93 -83 54 -113 64 -139 46 -22 -16 -22 -16 -19 42
l3 57 110 1 110 1 0 30 0 30 -112 3 -112 3 -3 62 c-3 58 -5 62 -28 65 -14 2
-29 0 -33 -4z"/>
<path d="M11687 6869 c-11 -7 -17 -22 -17 -49 l0 -39 -82 -3 c-77 -3 -83 -5
-86 -26 -2 -13 3 -25 12 -28 13 -5 16 -23 16 -90 0 -78 -1 -84 -21 -84 -31 0
-59 -19 -59 -39 0 -26 19 -31 126 -31 l94 0 0 -84 c0 -64 4 -87 16 -97 11 -9
20 -10 32 -2 13 8 18 29 20 96 l3 86 62 3 c59 3 62 4 65 30 3 22 -2 27 -27 33
-17 4 -45 5 -63 3 l-33 -3 -3 87 -3 87 53 3 c49 3 53 5 53 28 0 23 -4 25 -52
28 l-53 3 0 39 c0 44 -23 65 -53 49z m-17 -234 l0 -85 -35 0 -35 0 0 85 0 85
35 0 35 0 0 -85z"/>
<path d="M10192 6847 c-7 -8 -13 -67 -14 -138 -2 -101 -6 -123 -17 -121 -36 8
-150 3 -190 -8 -133 -36 -149 -170 -28 -229 108 -52 257 -7 297 90 12 29 12
29 42 11 16 -9 43 -32 59 -49 16 -18 38 -33 49 -33 23 0 43 34 35 60 -8 27
-67 76 -126 105 l-50 26 2 140 c2 112 -1 143 -12 150 -20 12 -35 11 -47 -4z
m-59 -328 c41 -11 47 -30 21 -67 -37 -53 -132 -69 -191 -32 -52 31 -42 72 23
95 47 17 96 18 147 4z"/>
<path d="M12605 6841 c-106 -16 -115 -33 -115 -211 0 -72 5 -140 10 -151 25
-46 140 -69 273 -55 53 6 72 13 97 36 l30 28 0 137 c0 148 -9 182 -53 202 -33
15 -179 23 -242 14z m209 -77 c9 -9 16 -32 16 -55 l0 -39 -135 0 -135 0 0 39
c0 63 15 71 135 71 81 0 107 -3 119 -16z m16 -198 c0 -64 -21 -76 -132 -76
-109 0 -134 10 -142 59 -3 20 -6 42 -6 49 0 9 35 12 140 12 l140 0 0 -44z"/>
<path d="M14774 6815 c-4 -8 -4 -22 0 -30 5 -13 65 -15 483 -13 l478 3 0 25 0
25 -478 3 c-418 2 -478 0 -483 -13z"/>
<path d="M14972 6690 c-30 -13 -45 -55 -39 -114 6 -64 31 -86 98 -86 45 0 66
-13 37 -23 -10 -3 -9 -12 4 -40 l17 -36 -156 -3 c-131 -3 -157 -6 -166 -19 -6
-9 -7 -24 -4 -33 6 -14 51 -16 490 -16 477 0 507 2 507 31 0 4 -7 15 -16 23
-13 13 -43 16 -171 16 -144 0 -155 1 -147 18 4 9 8 32 8 50 0 32 0 32 48 32
39 0 54 5 75 26 23 23 25 31 21 86 -7 100 -1 98 -317 97 -146 0 -276 -4 -289
-9z m483 -48 c37 -7 40 -10 43 -45 3 -32 0 -38 -23 -47 -14 -6 -117 -10 -229
-10 -228 0 -240 3 -234 60 3 31 7 36 38 41 49 9 357 9 405 1z m-179 -162 l93
0 -16 -45 -15 -45 -84 0 c-80 0 -84 1 -90 24 -3 14 -14 32 -25 42 -28 25 -23
37 12 30 17 -3 73 -6 125 -6z"/>
<path d="M19607 6624 c-86 -111 -198 -188 -340 -234 -72 -23 -88 -43 -58 -73
18 -18 24 -19 68 -8 125 31 302 146 396 259 53 63 65 95 47 117 -26 31 -54 16
-113 -61z"/>
<path d="M17843 6534 c-29 -77 125 -143 305 -131 99 7 136 22 140 58 5 41 -17
52 -84 40 -121 -23 -247 -8 -293 33 -23 21 -60 21 -68 0z"/>
<path d="M11310 2680 l0 -1910 313 2 312 3 3 828 2 827 885 0 885 0 0 270 0
270 -885 0 -885 0 0 530 0 530 1050 0 1050 0 0 280 0 280 -1365 0 -1365 0 0
-1910z"/>
<path d="M15820 2680 l0 -1910 1358 2 1357 3 3 278 2 277 -1045 0 -1045 0 0
555 0 555 888 2 887 3 3 263 2 262 -890 0 -890 0 0 530 0 530 1045 0 1045 0 0
280 0 280 -1360 0 -1360 0 0 -1910z"/>
<path d="M20320 2680 l0 -1910 315 0 315 0 0 1316 c0 839 3 1313 10 1309 5 -3
250 -318 545 -700 l537 -695 118 0 119 0 543 710 c299 390 546 710 551 710 4
0 7 -596 7 -1325 l0 -1325 310 0 310 0 0 1368 c0 753 -3 1612 -7 1910 l-6 542
-232 0 -231 0 -680 -889 c-373 -490 -681 -890 -684 -890 -3 0 -309 400 -680
889 l-675 889 -242 1 -243 0 0 -1910z"/>
</g>
</svg>
